<svg xmlns="http://www.w3.org/2000/svg" width="876" height="538" viewBox="0 0 876 538" role="img" aria-label="Exploited edge CVEs by vendor, CISA KEV 2020 to 2026, 13 vendors">
<style>text{font-family:-apple-system,BlinkMacSystemFont,"Segoe UI",Helvetica,Arial,sans-serif;}</style>
<rect x="0" y="0" width="876" height="538" fill="#0d1117"/>
<text x="200" y="32" fill="#e6edf3" font-size="19" font-weight="600">Exploited edge CVEs by vendor</text>
<text x="200" y="56" fill="#8b949e" font-size="13">CISA KEV 2020–2026, 13 edge vendors, 2–18</text>
<text x="200" y="76" fill="#8b949e" font-size="11">Source: CISA KEV catalog 2026.06.18 — reproduce with scripts/build_kev_counts.py</text>
<line x1="200.0" y1="92" x2="200.0" y2="482" stroke="#30363d" stroke-width="1" opacity="0.5"/>
<text x="200.0" y="502" fill="#8b949e" font-size="11" text-anchor="middle">0</text>
<line x1="268.9" y1="92" x2="268.9" y2="482" stroke="#30363d" stroke-width="1" opacity="0.5"/>
<text x="268.9" y="502" fill="#8b949e" font-size="11" text-anchor="middle">2</text>
<line x1="337.8" y1="92" x2="337.8" y2="482" stroke="#30363d" stroke-width="1" opacity="0.5"/>
<text x="337.8" y="502" fill="#8b949e" font-size="11" text-anchor="middle">4</text>
<line x1="406.7" y1="92" x2="406.7" y2="482" stroke="#30363d" stroke-width="1" opacity="0.5"/>
<text x="406.7" y="502" fill="#8b949e" font-size="11" text-anchor="middle">6</text>
<line x1="475.6" y1="92" x2="475.6" y2="482" stroke="#30363d" stroke-width="1" opacity="0.5"/>
<text x="475.6" y="502" fill="#8b949e" font-size="11" text-anchor="middle">8</text>
<line x1="544.4" y1="92" x2="544.4" y2="482" stroke="#30363d" stroke-width="1" opacity="0.5"/>
<text x="544.4" y="502" fill="#8b949e" font-size="11" text-anchor="middle">10</text>
<line x1="613.3" y1="92" x2="613.3" y2="482" stroke="#30363d" stroke-width="1" opacity="0.5"/>
<text x="613.3" y="502" fill="#8b949e" font-size="11" text-anchor="middle">12</text>
<line x1="682.2" y1="92" x2="682.2" y2="482" stroke="#30363d" stroke-width="1" opacity="0.5"/>
<text x="682.2" y="502" fill="#8b949e" font-size="11" text-anchor="middle">14</text>
<line x1="751.1" y1="92" x2="751.1" y2="482" stroke="#30363d" stroke-width="1" opacity="0.5"/>
<text x="751.1" y="502" fill="#8b949e" font-size="11" text-anchor="middle">16</text>
<line x1="820.0" y1="92" x2="820.0" y2="482" stroke="#30363d" stroke-width="1" opacity="0.5"/>
<text x="820.0" y="502" fill="#8b949e" font-size="11" text-anchor="middle">18</text>
<text x="188" y="111.0" fill="#e6edf3" font-size="12.5" text-anchor="end">Fortinet</text>
<rect x="200" y="98.0" width="620.0" height="18" rx="2" fill="#f85149"/>
<text x="828.0" y="111.3" fill="#e6edf3" font-size="12" font-weight="600">18</text>
<text x="188" y="141.0" fill="#e6edf3" font-size="12.5" text-anchor="end">Cisco</text>
<rect x="200" y="128.0" width="447.8" height="18" rx="2" fill="#58a6ff"/>
<text x="655.8" y="141.3" fill="#e6edf3" font-size="12" font-weight="600">13</text>
<text x="188" y="171.0" fill="#e6edf3" font-size="12.5" text-anchor="end">Citrix</text>
<rect x="200" y="158.0" width="447.8" height="18" rx="2" fill="#58a6ff"/>
<text x="655.8" y="171.3" fill="#e6edf3" font-size="12" font-weight="600">13</text>
<text x="188" y="201.0" fill="#e6edf3" font-size="12.5" text-anchor="end">Ivanti</text>
<rect x="200" y="188.0" width="447.8" height="18" rx="2" fill="#58a6ff"/>
<text x="655.8" y="201.3" fill="#e6edf3" font-size="12" font-weight="600">13</text>
<text x="188" y="231.0" fill="#e6edf3" font-size="12.5" text-anchor="end">Palo Alto Networks</text>
<rect x="200" y="218.0" width="413.3" height="18" rx="2" fill="#58a6ff"/>
<text x="621.3" y="231.3" fill="#e6edf3" font-size="12" font-weight="600">12</text>
<text x="188" y="261.0" fill="#e6edf3" font-size="12.5" text-anchor="end">SonicWall</text>
<rect x="200" y="248.0" width="413.3" height="18" rx="2" fill="#58a6ff"/>
<text x="621.3" y="261.3" fill="#e6edf3" font-size="12" font-weight="600">12</text>
<text x="188" y="291.0" fill="#e6edf3" font-size="12.5" text-anchor="end">Juniper</text>
<rect x="200" y="278.0" width="275.6" height="18" rx="2" fill="#58a6ff"/>
<text x="483.6" y="291.3" fill="#e6edf3" font-size="12" font-weight="600">8</text>
<text x="188" y="321.0" fill="#e6edf3" font-size="12.5" text-anchor="end">F5</text>
<rect x="200" y="308.0" width="206.7" height="18" rx="2" fill="#58a6ff"/>
<text x="414.7" y="321.3" fill="#e6edf3" font-size="12" font-weight="600">6</text>
<text x="188" y="351.0" fill="#e6edf3" font-size="12.5" text-anchor="end">Sophos</text>
<rect x="200" y="338.0" width="206.7" height="18" rx="2" fill="#58a6ff"/>
<text x="414.7" y="351.3" fill="#e6edf3" font-size="12" font-weight="600">6</text>
<text x="188" y="381.0" fill="#e6edf3" font-size="12.5" text-anchor="end">Zyxel</text>
<rect x="200" y="368.0" width="206.7" height="18" rx="2" fill="#58a6ff"/>
<text x="414.7" y="381.3" fill="#e6edf3" font-size="12" font-weight="600">6</text>
<text x="188" y="411.0" fill="#e6edf3" font-size="12.5" text-anchor="end">WatchGuard</text>
<rect x="200" y="398.0" width="137.8" height="18" rx="2" fill="#58a6ff"/>
<text x="345.8" y="411.3" fill="#e6edf3" font-size="12" font-weight="600">4</text>
<text x="188" y="441.0" fill="#e6edf3" font-size="12.5" text-anchor="end">Array Networks</text>
<rect x="200" y="428.0" width="68.9" height="18" rx="2" fill="#58a6ff"/>
<text x="276.9" y="441.3" fill="#e6edf3" font-size="12" font-weight="600">2</text>
<text x="188" y="471.0" fill="#e6edf3" font-size="12.5" text-anchor="end">Check Point</text>
<rect x="200" y="458.0" width="68.9" height="18" rx="2" fill="#58a6ff"/>
<text x="276.9" y="471.3" fill="#e6edf3" font-size="12" font-weight="600">2</text>
<text x="510.0" y="526" fill="#8b949e" font-size="12" text-anchor="middle">Exploited edge CVEs (CISA KEV) — 115 total. A sort, not a verdict.</text>
</svg>
